<?xml version="1.0" standalone="no"?>
<!DOCTYPE svg PUBLIC "-//W3C//DTD SVG 20010904//EN"
 "http://www.w3.org/TR/2001/REC-SVG-20010904/DTD/svg10.dtd">
<svg version="1.0" xmlns="http://www.w3.org/2000/svg"
 width="1200.000000pt" height="1200.000000pt" viewBox="0 0 1200.000000 1200.000000"
 preserveAspectRatio="xMidYMid meet">
<metadata>
Created by potrace 1.11, written by Peter Selinger 2001-2013
</metadata>
<g transform="translate(0.000000,1200.000000) scale(0.100000,-0.100000)"
fill="#000000" stroke="none">
<path d="M8175 11824 c-150 -33 -321 -144 -412 -267 -102 -139 -138 -250 -138
-427 0 -136 12 -192 66 -306 127 -267 431 -433 721 -394 363 50 622 345 620
705 -1 187 -60 338 -185 471 -87 94 -198 167 -302 200 -103 33 -266 41 -370
18z"/>
<path d="M6272 10590 c-210 -55 -380 -215 -448 -423 -38 -114 -40 -267 -6
-377 35 -111 86 -196 167 -276 206 -204 531 -242 782 -92 90 53 182 151 230
243 56 109 76 189 76 305 0 421 -394 726 -801 620z"/>
<path d="M7720 9315 c-512 -76 -961 -426 -1165 -907 -41 -95 -95 -272 -95
-309 0 -12 24 -17 128 -28 737 -72 1323 -412 1659 -963 104 -170 173 -339 229
-558 19 -74 37 -136 40 -139 3 -3 48 16 102 43 712 352 1032 1183 741 1920
-200 507 -672 875 -1212 946 -104 13 -321 11 -427 -5z"/>
<path d="M5760 7830 c-872 -38 -1570 -359 -1928 -887 -230 -338 -319 -798
-243 -1244 71 -410 295 -740 676 -993 278 -185 635 -327 1145 -456 695 -175
999 -303 1178 -494 102 -110 142 -214 142 -367 0 -205 -95 -353 -285 -444
-140 -67 -247 -89 -440 -88 -140 0 -172 3 -260 27 -354 93 -594 341 -706 727
l-23 79 -839 0 -840 0 7 -67 c20 -190 103 -474 195 -660 109 -222 216 -369
393 -538 385 -370 931 -587 1653 -656 190 -19 645 -16 835 5 578 62 1005 205
1363 456 127 89 317 281 396 399 203 306 286 652 252 1056 -53 634 -343 1052
-940 1354 -249 126 -482 210 -861 311 -107 28 -272 73 -365 100 -729 210 -995
417 -995 773 0 249 166 445 424 502 115 26 302 17 412 -19 85 -27 175 -79 244
-142 110 -99 215 -305 260 -506 l13 -58 844 0 c463 0 843 2 843 5 0 40 -62
302 -96 405 -176 536 -542 949 -1049 1183 -406 187 -844 261 -1405 237z"/>
</g>
</svg>
